<?xml version="1.0" encoding="utf-8"?>
<!-- Generator: Adobe Illustrator 28.0.0, SVG Export Plug-In . SVG Version: 6.00 Build 0)  -->
<svg version="1.1" id="Layer_1" xmlns="http://www.w3.org/2000/svg" xmlns:xlink="http://www.w3.org/1999/xlink" x="0px" y="0px"
	 viewBox="0 0 20 20" style="enable-background:new 0 0 20 20;" xml:space="preserve">
<g>
	<g>
		<path d="M12.2,9.3c-0.7,0-1.2,0.6-1.2,1.4c0,0.8,0.5,1.4,1.2,1.4s1.2-0.6,1.2-1.4C13.4,9.9,12.9,9.3,12.2,9.3z"/>
	</g>
	<g>
		<path d="M18,0H2C0.9,0,0,0.9,0,2v16c0,1.1,0.9,2,2,2h16c1.1,0,2-0.9,2-2V2C20,0.9,19.1,0,18,0z M17.8,13.7c-1,1.8-3.7,2.2-4.3,2.3
			c0,0,0,0,0,0c-0.1,0-0.2-0.1-0.3-0.1l-0.6-0.9c1.7-0.4,2.6-1.2,2.6-1.2c0.1-0.1,0.2-0.3,0-0.5c-0.1-0.1-0.3-0.2-0.5,0
			c0,0-1.6,1.4-4.7,1.4c-3.1,0-4.7-1.4-4.7-1.4c-0.1-0.1-0.4-0.1-0.5,0c-0.1,0.1-0.1,0.4,0,0.5c0,0,0.9,0.8,2.6,1.2l-0.6,0.9
			c-0.1,0.1-0.2,0.1-0.3,0.1c0,0,0,0,0,0c-0.6,0-3.3-0.5-4.3-2.3c0-0.1,0-0.1,0-0.2c0-3.4,1.4-7.4,2.2-8.1c1.4-1.1,3.5-1.3,3.6-1.3
			c0.1,0,0.3,0.1,0.3,0.2c0,0,0.1,0.1,0.1,0.3c-0.9,0.2-2,0.5-3,1.1C5.2,5.8,5.1,6,5.2,6.2c0.1,0.2,0.3,0.2,0.5,0.1
			C7.4,5.2,9.6,5.1,10,5.1c0.4,0,2.6,0.1,4.3,1.1c0.1,0,0.1,0.1,0.2,0.1c0.1,0,0.2-0.1,0.3-0.2c0.1-0.2,0-0.4-0.1-0.5
			c-1-0.6-2.1-0.9-3-1.1c0.1-0.2,0.1-0.3,0.1-0.3c0.1-0.1,0.2-0.2,0.3-0.2c0.1,0,2.3,0.2,3.6,1.3c0.7,0.7,2.2,4.7,2.2,8.1
			C17.9,13.5,17.9,13.6,17.8,13.7z"/>
	</g>
	<g>
		<path d="M7.8,9.3c-0.7,0-1.2,0.6-1.2,1.4c0,0.8,0.5,1.4,1.2,1.4S9,11.5,9,10.7C9,9.9,8.4,9.3,7.8,9.3z"/>
	</g>
</g>
</svg>
